<svg xmlns="http://www.w3.org/2000/svg" width="1026" height="1027" viewBox="0 0 1026 1027">
  <g id="logo" transform="translate(0.265 302.288)">
    <path id="frame" d="M0,0H1026V1027H0Z" transform="translate(-0.265 -302.288)" fill="rgba(255,255,255,0)"/>
    <path id="head" d="M210.176,353.74A210,210,0,0,1,0,143.565,209.442,209.442,0,0,1,56.4.293L209.96,283.54,363.682,0a210.3,210.3,0,0,1-71.7,337.224A208.864,208.864,0,0,1,210.176,353.74Z" transform="translate(302.734 50.878)" fill="#3a7dc9"/>
    <path id="body" d="M210.075,387.483l-33.452-61.7a150.99,150.99,0,0,1-47.14-19.465A152.376,152.376,0,0,1,67.522,124.545L0,0H38.041L210.075,317.315,382.108,0H420.15L352.884,124.073A152.252,152.252,0,0,1,243.468,325.891l-33.393,61.592Z" transform="translate(302.621 17.101)" fill="#163861"/>
    <path id="wings" d="M674.139,329.182h0a123.455,123.455,0,0,0,14.789-58.952c0-63.269-46.763-114.743-104.242-114.743a95.19,95.19,0,0,0-34.732,6.507L614.626,14.387l5.5-.211v-.011l.761-.026.007,0,.007,0,2.549-.1L1025.735,0c-.549.946-1.11,1.878-1.667,2.773-1.474,2.384-3.892,6.117-7.047,10.365A136.379,136.379,0,0,1,1006,26.254,95.594,95.594,0,0,1,991.593,38.71a95.218,95.218,0,0,1-16.732,9.074,136.161,136.161,0,0,1-16.139,5.671c-5.043,1.433-9.4,2.378-12.164,2.918-2.829.552-4.61.8-4.8.826l-.006.005c-.012.017-1.206,1.837-3.351,4.672-1.984,2.625-5.213,6.688-9.33,11.138a126.134,126.134,0,0,1-14.206,13.268,94.685,94.685,0,0,1-8.592,6.08,73.282,73.282,0,0,1-9.4,4.985,72.208,72.208,0,0,1-9.682,3.4,91.021,91.021,0,0,1-9.882,2.119,119.592,119.592,0,0,1-18.653,1.4,142.124,142.124,0,0,1-15.044-.81c-3.425-.371-5.551-.739-5.942-.809l0,.006c-.236.282-1.527,1.806-3.736,4.079a127.533,127.533,0,0,1-10.507,9.614,118.511,118.511,0,0,1-16.212,11.2,99.8,99.8,0,0,1-9.912,4.956,85.9,85.9,0,0,1-10.938,3.869,83.767,83.767,0,0,1-13.131,2.444,126.19,126.19,0,0,1-13.753.708c-4.706,0-9.724-.225-14.913-.668-4.311-.367-8.813-.893-13.38-1.565-7.785-1.148-13.921-2.452-16.885-3.128,1.6,5.35,3.008,10.857,4.18,16.365a107.939,107.939,0,0,1,3.89,26.581c.468,5.727.706,11.561.706,17.339a211.586,211.586,0,0,1-4.647,44.159,208.929,208.929,0,0,1-13.293,40.934l-.051-.041a210.277,210.277,0,0,1-30.944,49.689Zm-322.54,0a209.974,209.974,0,0,1-30.944-49.688l-.054.04A208.984,208.984,0,0,1,307.309,238.6a211.653,211.653,0,0,1-4.646-44.159c0-5.788.237-11.621.706-17.337a107.875,107.875,0,0,1,3.89-26.581c1.166-5.487,2.572-10.994,4.179-16.367-2.972.678-9.119,1.984-16.883,3.128-4.541.669-9.042,1.2-13.38,1.565-5.16.443-10.177.668-14.913.668a126.21,126.21,0,0,1-13.753-.708,83.8,83.8,0,0,1-13.131-2.444,85.461,85.461,0,0,1-10.937-3.869,99.658,99.658,0,0,1-9.913-4.954,118.452,118.452,0,0,1-16.212-11.2,127.139,127.139,0,0,1-10.509-9.614c-2.032-2.091-3.289-3.548-3.736-4.077l0-.006c-.581.1-2.731.461-5.941.807a142.133,142.133,0,0,1-15.044.81,119.559,119.559,0,0,1-18.652-1.4,90.689,90.689,0,0,1-9.882-2.119,72.049,72.049,0,0,1-9.682-3.4,73.563,73.563,0,0,1-9.4-4.986,94.7,94.7,0,0,1-8.59-6.078,126.5,126.5,0,0,1-14.208-13.27c-4.118-4.451-7.347-8.514-9.33-11.138-2.066-2.733-3.223-4.48-3.348-4.67l-.009-.006c-.2-.027-1.994-.28-4.8-.828-2.739-.532-7.073-1.471-12.165-2.918a135.8,135.8,0,0,1-16.14-5.669A95.217,95.217,0,0,1,34.144,38.71,95.413,95.413,0,0,1,19.738,26.254,136.494,136.494,0,0,1,8.716,13.14C5.58,8.916,3.152,5.173,1.667,2.776,1.056,1.787.5.855,0,0L0,0,402.281,14.05l2.551.1.007-.006.007,0,.762.026v.013l5.692.218,64.71,147.687a95.163,95.163,0,0,0-34.955-6.6c-57.481,0-104.245,51.474-104.245,114.745a123.436,123.436,0,0,0,14.791,58.95Z" transform="translate(0 0)" fill="#8dc1ff"/>
  </g>
</svg>
