<svg xmlns="http://www.w3.org/2000/svg" width="948.07" height="149.393" viewBox="0 0 948.07 149.393">
  <path id="vertical" d="M126.1-423.879v4.032q-3.831.806-8.166,4.637t-7.762,12.9L62.787-280.124H59.561l-49.2-126.819Q7.342-414.6,3.511-417.125a14.823,14.823,0,0,0-7.057-2.722v-4.032q4.032.2,9.98.4t11.593.2q7.863,0,14.718-.2t11.089-.4v4.032q-10.283.4-13,3.528t1.109,13.408l37.5,99.4-3.226,3.428L101.3-391.217q4.234-10.887,4.032-17.037t-4.637-8.771q-4.436-2.621-12.9-2.823v-4.032q5.847.2,11.9.4t11.291.2q5.242,0,8.67-.2T126.1-423.879Zm107.665,0q-.806,7.057-1.109,13.71t-.3,10.081q0,3.629.2,6.956t.4,5.545h-4.637a96.659,96.659,0,0,0-3.428-18.852q-2.218-6.956-7.561-9.879T201.3-419.242H184.566a36.766,36.766,0,0,0-10.383,1.109,6.977,6.977,0,0,0-4.738,4.637q-1.21,3.528-1.21,10.988v100q0,7.258,1.21,10.888a6.988,6.988,0,0,0,4.738,4.738,36.766,36.766,0,0,0,10.383,1.109h14.718q12.7,0,19.255-3.428a19.975,19.975,0,0,0,9.476-11.19q2.923-7.762,4.335-21.069h4.637a137.675,137.675,0,0,0-.6,14.517q0,3.831.3,10.988t1.109,14.819q-10.283-.4-23.186-.5t-22.985-.1H175.594q-9.98,0-21.271.1t-21.17.5v-4.032a41.436,41.436,0,0,0,10.383-1.613,7.265,7.265,0,0,0,4.738-4.839q1.21-3.629,1.21-10.888v-100q0-7.46-1.21-10.988a7.549,7.549,0,0,0-4.738-4.839,34.342,34.342,0,0,0-10.383-1.512v-4.032q9.879.2,21.17.4t21.271.2h16.029q9.275,0,21.069-.1T233.761-423.879Zm-34.679,68.954v4.032h-36.9v-4.032Zm5.847-26.614q-.806,11.492-.706,17.541t.1,11.089q0,5.04.2,11.089t1.008,17.541H200.9q-.806-6.452-1.915-12.6a19.2,19.2,0,0,0-4.839-10.081q-3.73-3.932-12.6-3.932v-4.032q8.871,0,12.4-4.637a23.963,23.963,0,0,0,4.536-10.888q1.008-6.25,1.815-11.089Zm51.01-42.34q4.234.2,11.089.4t13.509.2q9.476,0,18.146-.2t12.3-.2q24.4,0,36.493,10.081t12.1,25a38.849,38.849,0,0,1-2.419,12.9,35.159,35.159,0,0,1-8.367,12.9q-5.948,6.049-16.23,9.98t-26.009,3.932H287.191v-4.032H304.53q14.315,0,21.876-4.536a23.016,23.016,0,0,0,10.283-12.1,49.425,49.425,0,0,0,2.722-16.835q0-15.928-7.561-24.7t-25.908-8.771q-9.275,0-12.1,3.428t-2.823,13.912v100q0,7.258,1.21,10.888a7.265,7.265,0,0,0,4.738,4.839,41.437,41.437,0,0,0,10.383,1.613v4.032q-4.637-.4-11.593-.5t-14.013-.1q-7.863,0-14.718.1t-11.089.5v-4.032a41.436,41.436,0,0,0,10.383-1.613,7.265,7.265,0,0,0,4.738-4.839q1.21-3.629,1.21-10.888v-100q0-7.46-1.21-10.988a7.549,7.549,0,0,0-4.738-4.839,34.342,34.342,0,0,0-10.383-1.512ZM288-352.3q10.888.4,17.138.907t10.182.907q3.932.4,7.561,1.008,13.509,2.218,19.456,8.166t8.77,18.448l5.041,20.565q2.016,8.871,4.133,12.8a6.59,6.59,0,0,0,6.553,3.73,9.32,9.32,0,0,0,5.746-2.218,37.122,37.122,0,0,0,4.94-5.444l3.024,2.218a38.433,38.433,0,0,1-8.77,9.577q-4.537,3.327-12.8,3.327a20.606,20.606,0,0,1-13.105-4.436q-5.645-4.436-8.468-17.339l-4.436-20.162a109.837,109.837,0,0,0-4.133-15.021,23.833,23.833,0,0,0-6.452-9.98q-4.133-3.629-12.2-3.629H288.4ZM496.07-423.879q-.807,7.662-1.109,14.819t-.3,10.988q0,4.839.2,9.073t.4,7.46h-4.637q-1.411-14.113-3.831-22.279t-8.468-11.795q-6.049-3.629-18.751-3.629H448.689V-304.52q0,8.065,1.512,12.1a8.8,8.8,0,0,0,5.948,5.444,53.443,53.443,0,0,0,12.9,1.815v4.032q-5.242-.4-13.307-.5t-16.331-.1q-9.073,0-17.037.1t-12.8.5v-4.032a53.444,53.444,0,0,0,12.9-1.815,8.8,8.8,0,0,0,5.948-5.444q1.512-4.032,1.512-12.1V-419.242H419.051q-12.5,0-18.65,3.629t-8.569,11.795q-2.419,8.166-3.831,22.279h-4.637q.4-3.226.5-7.46t.1-9.073q0-3.831-.3-10.988t-1.109-14.819q8.468.2,18.448.4t20.061.2h36.594q9.98,0,20.061-.2T496.07-423.879Zm65.728,0v4.032a34.342,34.342,0,0,0-10.383,1.512,7.549,7.549,0,0,0-4.738,4.839q-1.21,3.528-1.21,10.988v100q0,7.258,1.21,10.888a7.265,7.265,0,0,0,4.738,4.839,41.435,41.435,0,0,0,10.383,1.613v4.032q-4.637-.4-11.593-.5t-14.013-.1q-7.863,0-14.718.1t-11.089.5v-4.032a41.436,41.436,0,0,0,10.383-1.613,7.265,7.265,0,0,0,4.738-4.839q1.21-3.629,1.21-10.888v-100q0-7.46-1.21-10.988a7.549,7.549,0,0,0-4.738-4.839,34.342,34.342,0,0,0-10.383-1.512v-4.032q4.234.2,11.089.4t14.718.2q7.057,0,14.013-.2T561.8-423.879Zm81.656-2.823q13.307,0,21.876,3.932a75.02,75.02,0,0,1,15.222,9.174q4.032,3.024,6.149.706t2.923-10.988h4.637q-.4,7.46-.6,18.146t-.2,28.227h-4.637q-1.411-8.67-2.621-13.811a44.591,44.591,0,0,0-2.923-8.771,39.027,39.027,0,0,0-4.536-7.258,35.856,35.856,0,0,0-15.726-12,54.005,54.005,0,0,0-19.96-3.73,33.165,33.165,0,0,0-17.843,4.94,42.851,42.851,0,0,0-13.71,14.214,75.566,75.566,0,0,0-8.871,22.38A127.191,127.191,0,0,0,599.5-352.1a117.955,117.955,0,0,0,3.428,29.941,68.993,68.993,0,0,0,9.577,21.876,42.18,42.18,0,0,0,14.517,13.408,37.27,37.27,0,0,0,18.045,4.536,54.9,54.9,0,0,0,18.952-3.629,31.764,31.764,0,0,0,15.525-11.694,34.825,34.825,0,0,0,6.149-12.7,157.393,157.393,0,0,0,3.125-19.154h4.637q0,18.347.2,29.537t.6,18.852h-4.637q-.807-8.67-2.722-10.888t-6.351.6a105.514,105.514,0,0,1-15.827,9.174q-8.367,3.932-21.473,3.932-19.154,0-33.57-8.67t-22.38-25q-7.964-16.331-7.964-39.316,0-22.581,8.266-39.518t22.682-26.412Q624.7-426.7,643.454-426.7Zm129.037,1.815,49.2,126.819q3.024,7.662,6.855,10.182a14.823,14.823,0,0,0,7.057,2.722v4.032q-4.032-.4-9.879-.5t-11.694-.1q-7.863,0-14.718.1t-11.089.5v-4.032q10.283-.4,13.105-3.528t-1.21-13.408l-37.5-100.205,3.226-2.621-35.082,91.133q-4.234,10.887-4.032,17.037t4.637,8.771q4.436,2.621,12.9,2.823v4.032q-5.645-.4-11.795-.5t-11.392-.1q-5.04,0-8.569.1a63.435,63.435,0,0,0-6.553.5v-4.032a20.231,20.231,0,0,0,8.266-4.738q4.234-3.73,7.662-12.8l47.381-122.182h3.226Zm24.6,85.689v4.032H737.006l2.016-4.032Zm93.149-84.681v4.032a34.343,34.343,0,0,0-10.383,1.512,7.549,7.549,0,0,0-4.738,4.839q-1.21,3.528-1.21,10.988v100q0,7.258,1.21,10.888a6.988,6.988,0,0,0,4.738,4.738,36.766,36.766,0,0,0,10.383,1.109h14.718q12.7,0,19.255-3.629t9.476-11.9q2.924-8.266,4.335-22.178h4.637q-.6,6.25-.6,16.533,0,3.831.3,10.988t1.109,14.819q-10.283-.4-23.186-.5t-22.985-.1H881.266q-9.98,0-21.271.1t-21.17.5v-4.032a41.435,41.435,0,0,0,10.383-1.613,7.265,7.265,0,0,0,4.738-4.839q1.21-3.629,1.21-10.888v-100q0-7.46-1.21-10.988a7.549,7.549,0,0,0-4.738-4.839,34.342,34.342,0,0,0-10.383-1.512v-4.032q4.234.2,11.089.4t14.718.2q7.057,0,14.013-.2T890.238-423.879Z" transform="translate(4.046 427.202)" fill="#3a7dc9" stroke="rgba(0,0,0,0)" stroke-miterlimit="10" stroke-width="1"/>
</svg>
