<svg xmlns="http://www.w3.org/2000/svg" width="702.85" height="148.399" viewBox="0 0 702.85 148.399">
  <path id="vision" d="M1416.952,146.225a69.621,69.621,0,0,1-17.32-6.5,60.968,60.968,0,0,1-14.237-10.586,62.964,62.964,0,0,1-10.66-14.412,69.778,69.778,0,0,1-6.651-17.991,96.99,96.99,0,0,1-2.227-21.326c0-.44,0-.859.008-1.305V74a88.607,88.607,0,0,1,.975-13.328,72.835,72.835,0,0,1,2.924-12.166,71.928,71.928,0,0,1,16.314-27.687,67.24,67.24,0,0,1,14.266-11.34,65.43,65.43,0,0,1,17.138-7.111A78.294,78.294,0,0,1,1437.033,0,89.266,89.266,0,0,1,1457.1,2.17a70.1,70.1,0,0,1,17.436,6.5,59.948,59.948,0,0,1,24.9,24.9,69.218,69.218,0,0,1,6.576,17.961,98.9,98.9,0,0,1,2.194,21.46v.064c0,.35.008.746.008,1.135,0,3.031-.141,6.041-.419,8.943a85.272,85.272,0,0,1-1.725,11.026,71.958,71.958,0,0,1-6.837,18.344,69.9,69.9,0,0,1-10.905,15.071,66.755,66.755,0,0,1-31.73,18.45,80.054,80.054,0,0,1-19.767,2.372A87.871,87.871,0,0,1,1416.952,146.225ZM1390.765,38.1c-12.371,9.538-19.184,22.222-19.184,35.71s6.813,26.17,19.184,35.709,28.82,14.791,46.313,14.791,33.944-5.252,46.317-14.791S1502.58,87.3,1502.58,73.813s-6.813-26.172-19.185-35.71-28.822-14.792-46.317-14.792S1403.137,28.563,1390.765,38.1ZM1204.738,145.974a82.746,82.746,0,0,1-12.5-5.041q-4.435-2.823-6.855-2.822-3.225,0-4.435,8.871h-4.638q.4-4.84.5-11.29t.2-16.835q.1-10.384.1-26.312h4.637a100.931,100.931,0,0,0,4.537,24.9q3.73,11.594,11.492,18.651t20.666,7.056q10.484,0,17.743-5.645t7.258-16.936q0-12.5-8.468-20.667a147.4,147.4,0,0,0-21.775-16.835q-9.477-6.25-17.743-12.5a52.026,52.026,0,0,1-13.207-14.315q-4.94-8.064-4.939-19.154,0-12.7,6.35-20.867a37.517,37.517,0,0,1,16.735-12.1A61.827,61.827,0,0,1,1222.481.2q11.895,0,18.347,2.52a71.333,71.333,0,0,1,11.089,5.343q2.419,1.411,3.931,2.117a6.9,6.9,0,0,0,2.924.706q3.225,0,4.435-8.871h4.638q-.2,3.831-.5,9.174t-.4,14.013q-.1,8.67-.1,22.784H1262.2a67.207,67.207,0,0,0-4.838-20.364,41.956,41.956,0,0,0-11.392-16.231,26.659,26.659,0,0,0-18.045-6.35q-9.677,0-15.927,5.443t-6.25,15.122a23.431,23.431,0,0,0,4.032,13.811,47.523,47.523,0,0,0,11.8,11.19q7.761,5.443,18.851,13.1a193.555,193.555,0,0,1,17.339,12.5,52.874,52.874,0,0,1,12.3,14.113q4.637,7.864,4.638,18.751,0,13.307-6.956,21.977a42.26,42.26,0,0,1-18.247,13,68.651,68.651,0,0,1-24.8,4.335Q1212.2,148.393,1204.738,145.974Zm430.359-.2q-2.52,0-5.343.2l-87.5-110.892V112.5a91.05,91.05,0,0,0,1.21,17.037q1.21,5.948,5.343,8.468t13,3.528v4.033q-3.83-.4-10.081-.5t-11.694-.1q-4.637,0-9.476.1a80.109,80.109,0,0,0-8.065.5v-4.033q6.452-1.008,9.678-3.427t4.334-7.964a81.5,81.5,0,0,0,1.11-15.223V24.195q0-7.46-1.11-10.988a7.266,7.266,0,0,0-4.435-4.839,29.89,29.89,0,0,0-9.577-1.512V2.822q3.225.2,8.065.4t9.476.2q4.838,0,9.275-.2t8.065-.4L1635.4,99V35.888a91.05,91.05,0,0,0-1.21-17.037q-1.21-5.948-5.343-8.569t-13.005-3.427V2.822q3.831.2,10.082.4t11.694.2q4.838,0,9.577-.2t7.964-.4V6.855q-6.452.806-9.678,3.326t-4.335,7.964a81.322,81.322,0,0,0-1.109,15.323v112.5Q1637.618,145.771,1635.1,145.772Zm-608.189,0h-7.056a27.562,27.562,0,0,0-3.428.2L965.011,19.759q-2.821-7.258-6.25-9.98a11.937,11.937,0,0,0-6.452-2.923V2.822q6.048.2,14.215.4t16.431.2q9.276,0,17.44-.2t13.207-.4V6.855q-9.879.4-12.9,3.326t1.21,13.61l35.478,90.255,24.806-66.868q5.444-15.121,5.646-23.791t-4.234-12.5q-4.436-3.83-12.7-4.032V2.822q6.855.2,12.9.4t12.3.2q4.436,0,8.367-.2t6.956-.4V6.855q-4.436,1.613-9.375,7.057t-9.174,16.936l-42.542,115.125A27.55,27.55,0,0,0,1026.908,145.772Zm311.5-.706q-8.267-.1-16.734-.1-9.879,0-18.247.1t-13.61.5v-4.033a35.61,35.61,0,0,0,9.678-1.613,7,7,0,0,0,4.335-4.839,39.871,39.871,0,0,0,1.109-10.887v-100q0-7.46-1.109-10.988a7.265,7.265,0,0,0-4.436-4.839,29.89,29.89,0,0,0-9.577-1.512V2.822q5.242.2,13.61.4t18.247.2q8.468,0,16.734-.2t13.508-.4l.2,4.033q-6.653.2-9.879,1.512a7.284,7.284,0,0,0-4.334,4.839q-1.11,3.528-1.109,10.988v100a48.744,48.744,0,0,0,1.21,10.887,6.729,6.729,0,0,0,4.334,4.839,36.275,36.275,0,0,0,9.577,1.613l.2,4.033Q1346.679,145.167,1338.412,145.066Zm-193.556,0q-8.266-.1-16.735-.1-9.879,0-18.247.1t-13.61.5v-4.033a35.611,35.611,0,0,0,9.678-1.613,7,7,0,0,0,4.335-4.839,39.875,39.875,0,0,0,1.109-10.887v-100q0-7.46-1.109-10.988a7.265,7.265,0,0,0-4.436-4.839,29.89,29.89,0,0,0-9.577-1.512V2.822q5.242.2,13.61.4t18.247.2q8.469,0,16.735-.2t13.508-.4l.2,4.033q-6.653.2-9.879,1.512a7.284,7.284,0,0,0-4.334,4.839q-1.11,3.528-1.109,10.988v100a48.744,48.744,0,0,0,1.21,10.887,6.731,6.731,0,0,0,4.334,4.839,36.275,36.275,0,0,0,9.577,1.613l.2,4.033Q1153.123,145.167,1144.857,145.066Zm280.956-44.3a28.839,28.839,0,1,1,25.017-51.894c-.176-.007-.362-.013-.585-.013a12.132,12.132,0,1,0,12.132,12.131c0-.192-.005-.389-.014-.586a28.846,28.846,0,0,1-36.55,40.362Z" transform="translate(-952.309 -0.001)" fill="#1c4371"/>
</svg>
