<svg xmlns="http://www.w3.org/2000/svg" width="559.697" height="51.135" viewBox="0 0 559.697 51.135">
  <g id="wordmark" transform="translate(0.5 0.497)">
    <path id="wordmark-2" data-name="wordmark" d="M40.254-425.748v1.362a6.293,6.293,0,0,0-2.759,1.567,10.964,10.964,0,0,0-2.623,4.36L18.865-377.18h-1.09L1.154-420.026a7.172,7.172,0,0,0-2.316-3.44,5.008,5.008,0,0,0-2.384-.92v-1.362q1.362.068,3.372.136t3.917.068q2.657,0,4.973-.068t3.746-.136v1.362q-3.474.136-4.394,1.192t.375,4.53l12.67,33.582-1.09,1.158,11.852-30.789a15.783,15.783,0,0,0,1.362-5.756,3.3,3.3,0,0,0-1.567-2.963,9.126,9.126,0,0,0-4.36-.954v-1.362l4.019.136q2.044.068,3.815.068t2.929-.068Q39.232-425.68,40.254-425.748Zm36.375,0q-.272,2.384-.375,4.632t-.1,3.406q0,1.226.068,2.35t.136,1.873H74.789a32.656,32.656,0,0,0-1.158-6.369,5.5,5.5,0,0,0-2.554-3.338,11.617,11.617,0,0,0-5.415-.988H60.008a12.422,12.422,0,0,0-3.508.375,2.357,2.357,0,0,0-1.6,1.567,12.349,12.349,0,0,0-.409,3.712v33.786a12.4,12.4,0,0,0,.409,3.678,2.361,2.361,0,0,0,1.6,1.6,12.422,12.422,0,0,0,3.508.375H64.98a14.425,14.425,0,0,0,6.505-1.158,6.748,6.748,0,0,0,3.2-3.781,29.767,29.767,0,0,0,1.465-7.118h1.567a46.515,46.515,0,0,0-.2,4.9q0,1.294.1,3.712t.375,5.007q-3.474-.136-7.834-.17t-7.765-.034H56.977q-3.372,0-7.186.034t-7.152.17v-1.362a14,14,0,0,0,3.508-.545,2.455,2.455,0,0,0,1.6-1.635,12.4,12.4,0,0,0,.409-3.678v-33.786a12.349,12.349,0,0,0-.409-3.712,2.55,2.55,0,0,0-1.6-1.635,11.6,11.6,0,0,0-3.508-.511v-1.362q3.338.068,7.152.136t7.186.068h5.415q3.133,0,7.118-.034T76.629-425.748Zm-11.716,23.3v1.362H52.447v-1.362Zm1.975-8.992q-.272,3.883-.238,5.926t.034,3.747q0,1.7.068,3.746t.341,5.926H65.525q-.272-2.18-.647-4.257a6.488,6.488,0,0,0-1.635-3.406q-1.26-1.328-4.257-1.328v-1.362q3,0,4.189-1.567a8.1,8.1,0,0,0,1.533-3.678q.341-2.112.613-3.746Zm17.234-14.3q1.43.068,3.746.136t4.564.068q3.2,0,6.131-.068t4.155-.068q8.242,0,12.329,3.406a10.572,10.572,0,0,1,4.087,8.447,13.125,13.125,0,0,1-.817,4.36,11.878,11.878,0,0,1-2.827,4.36,15.157,15.157,0,0,1-5.483,3.372,24.859,24.859,0,0,1-8.787,1.328H94.68v-1.362h5.858q4.836,0,7.391-1.533a7.776,7.776,0,0,0,3.474-4.087,16.7,16.7,0,0,0,.92-5.688q0-5.381-2.554-8.344t-8.753-2.963q-3.133,0-4.087,1.158t-.954,4.7v33.786a12.4,12.4,0,0,0,.409,3.678,2.455,2.455,0,0,0,1.6,1.635,14,14,0,0,0,3.508.545v1.362q-1.567-.136-3.917-.17t-4.734-.034q-2.657,0-4.973.034t-3.746.17v-1.362a14,14,0,0,0,3.508-.545,2.454,2.454,0,0,0,1.6-1.635,12.4,12.4,0,0,0,.409-3.678v-33.786a12.348,12.348,0,0,0-.409-3.712,2.55,2.55,0,0,0-1.6-1.635,11.6,11.6,0,0,0-3.508-.511Zm10.831,24.182q3.678.136,5.79.307t3.44.307q1.328.136,2.554.341,4.564.749,6.573,2.759a12.594,12.594,0,0,1,2.963,6.233l1.7,6.948a18.449,18.449,0,0,0,1.4,4.325,2.227,2.227,0,0,0,2.214,1.26,3.149,3.149,0,0,0,1.941-.749,12.544,12.544,0,0,0,1.669-1.839l1.022.749a12.984,12.984,0,0,1-2.963,3.236,7.21,7.21,0,0,1-4.326,1.124,6.962,6.962,0,0,1-4.428-1.5q-1.907-1.5-2.861-5.858l-1.5-6.812a37.107,37.107,0,0,0-1.4-5.075,8.052,8.052,0,0,0-2.18-3.372,6.078,6.078,0,0,0-4.121-1.226H95.089Zm70.3-24.182q-.272,2.588-.375,5.007t-.1,3.712q0,1.635.068,3.065t.136,2.52h-1.567a42.534,42.534,0,0,0-1.294-7.527,6.586,6.586,0,0,0-2.861-3.985q-2.044-1.226-6.335-1.226h-3.678v38.759a12.331,12.331,0,0,0,.511,4.087,2.974,2.974,0,0,0,2.009,1.839,18.055,18.055,0,0,0,4.36.613v1.362q-1.771-.136-4.5-.17t-5.518-.034q-3.065,0-5.756.034t-4.325.17v-1.362a18.055,18.055,0,0,0,4.36-.613,2.974,2.974,0,0,0,2.009-1.839,12.332,12.332,0,0,0,.511-4.087v-38.759h-3.678a12.708,12.708,0,0,0-6.3,1.226,6.542,6.542,0,0,0-2.895,3.985,42.534,42.534,0,0,0-1.294,7.527h-1.567q.136-1.09.17-2.52t.034-3.065q0-1.294-.1-3.712t-.375-5.007q2.861.068,6.233.136t6.778.068h12.363q3.372,0,6.778-.068T165.25-425.748Zm22.206,0v1.362a11.6,11.6,0,0,0-3.508.511,2.55,2.55,0,0,0-1.6,1.635,12.349,12.349,0,0,0-.409,3.712v33.786a12.4,12.4,0,0,0,.409,3.678,2.455,2.455,0,0,0,1.6,1.635,14,14,0,0,0,3.508.545v1.362q-1.567-.136-3.917-.17t-4.734-.034q-2.657,0-4.973.034t-3.746.17v-1.362a14,14,0,0,0,3.508-.545,2.455,2.455,0,0,0,1.6-1.635,12.4,12.4,0,0,0,.409-3.678v-33.786a12.349,12.349,0,0,0-.409-3.712,2.55,2.55,0,0,0-1.6-1.635,11.6,11.6,0,0,0-3.508-.511v-1.362q1.43.068,3.746.136t4.973.068q2.384,0,4.734-.068T187.456-425.748Zm27.588-.954a17.787,17.787,0,0,1,7.391,1.328,25.345,25.345,0,0,1,5.143,3.1q1.362,1.022,2.078.238t.988-3.712h1.567q-.136,2.52-.2,6.131t-.068,9.536H230.37q-.477-2.929-.886-4.666a15.067,15.067,0,0,0-.988-2.963,13.187,13.187,0,0,0-1.533-2.452,12.114,12.114,0,0,0-5.313-4.053,18.245,18.245,0,0,0-6.744-1.26,11.2,11.2,0,0,0-6.028,1.669,14.477,14.477,0,0,0-4.632,4.8,25.53,25.53,0,0,0-3,7.561,42.972,42.972,0,0,0-1.056,9.945,39.851,39.851,0,0,0,1.158,10.116,23.309,23.309,0,0,0,3.236,7.391,14.25,14.25,0,0,0,4.9,4.53,12.592,12.592,0,0,0,6.1,1.533,18.548,18.548,0,0,0,6.4-1.226,10.731,10.731,0,0,0,5.245-3.951,11.765,11.765,0,0,0,2.078-4.291,53.181,53.181,0,0,0,1.056-6.471h1.567q0,6.2.068,9.979t.2,6.369h-1.567q-.273-2.929-.92-3.678t-2.146.2a35.649,35.649,0,0,1-5.347,3.1,17.115,17.115,0,0,1-7.255,1.328,21.579,21.579,0,0,1-11.342-2.929,19.589,19.589,0,0,1-7.561-8.447,30.061,30.061,0,0,1-2.691-13.283,30.1,30.1,0,0,1,2.793-13.351,21.886,21.886,0,0,1,7.663-8.923A19.935,19.935,0,0,1,215.044-426.7Zm43.6.613,16.621,42.846a7.172,7.172,0,0,0,2.316,3.44,5.008,5.008,0,0,0,2.384.92v1.362q-1.362-.136-3.338-.17t-3.951-.034q-2.657,0-4.973.034t-3.746.17v-1.362q3.474-.136,4.428-1.192t-.409-4.53L255.3-418.46l1.09-.886-11.852,30.789a15.783,15.783,0,0,0-1.362,5.756,3.3,3.3,0,0,0,1.567,2.963,9.126,9.126,0,0,0,4.36.954v1.362q-1.907-.136-3.985-.17t-3.849-.034q-1.7,0-2.9.034a21.434,21.434,0,0,0-2.214.17v-1.362a6.835,6.835,0,0,0,2.793-1.6,10.883,10.883,0,0,0,2.589-4.325l16.008-41.279h1.09Zm8.31,28.95v1.362h-20.3l.681-1.362Zm31.47-28.609v1.362a11.6,11.6,0,0,0-3.508.511,2.55,2.55,0,0,0-1.6,1.635,12.348,12.348,0,0,0-.409,3.712v33.786a12.4,12.4,0,0,0,.409,3.678,2.361,2.361,0,0,0,1.6,1.6,12.422,12.422,0,0,0,3.508.375h4.973a13.73,13.73,0,0,0,6.505-1.226,7.051,7.051,0,0,0,3.2-4.019,33.262,33.262,0,0,0,1.465-7.493h1.567q-.2,2.112-.2,5.586,0,1.294.1,3.712t.375,5.007q-3.474-.136-7.834-.17t-7.765-.034h-5.415q-3.372,0-7.186.034t-7.152.17v-1.362a14,14,0,0,0,3.508-.545,2.454,2.454,0,0,0,1.6-1.635,12.4,12.4,0,0,0,.409-3.678v-33.786a12.349,12.349,0,0,0-.409-3.712,2.55,2.55,0,0,0-1.6-1.635,11.6,11.6,0,0,0-3.508-.511v-1.362q1.43.068,3.746.136t4.973.068q2.384,0,4.734-.068T298.42-425.748Z" transform="translate(3.546 426.705)" fill="#3a7dc9" stroke="rgba(0,0,0,0)" stroke-miterlimit="10" stroke-width="1"/>
    <path id="Union_30" data-name="Union 30" d="M156.98,49.4a23.521,23.521,0,0,1-5.852-2.2,20.6,20.6,0,0,1-4.81-3.576,21.272,21.272,0,0,1-3.6-4.869,23.574,23.574,0,0,1-2.247-6.078,32.768,32.768,0,0,1-.752-7.2c0-.149,0-.29,0-.441V25a29.938,29.938,0,0,1,.329-4.5,24.609,24.609,0,0,1,.988-4.11,24.3,24.3,0,0,1,5.512-9.354,22.717,22.717,0,0,1,4.82-3.831,22.106,22.106,0,0,1,5.79-2.4,26.451,26.451,0,0,1,6.606-.8,30.158,30.158,0,0,1,6.78.733,23.681,23.681,0,0,1,5.891,2.2,20.253,20.253,0,0,1,8.412,8.413,23.384,23.384,0,0,1,2.222,6.068,33.412,33.412,0,0,1,.741,7.25v.022c0,.118,0,.252,0,.383,0,1.024-.047,2.041-.141,3.022a28.813,28.813,0,0,1-.583,3.725,24.311,24.311,0,0,1-2.31,6.2,23.616,23.616,0,0,1-3.684,5.092,22.553,22.553,0,0,1-10.72,6.233,27.047,27.047,0,0,1-6.678.8A29.687,29.687,0,0,1,156.98,49.4Zm-8.847-36.529c-4.18,3.222-6.481,7.508-6.481,12.065s2.3,8.842,6.481,12.064a27,27,0,0,0,31.3,0c4.18-3.223,6.482-7.507,6.482-12.064s-2.3-8.842-6.482-12.065a26.995,26.995,0,0,0-31.3,0ZM85.284,49.317a27.954,27.954,0,0,1-4.224-1.7,4.923,4.923,0,0,0-2.316-.954q-1.09,0-1.5,3H75.679q.136-1.635.17-3.815t.068-5.688q.034-3.508.034-8.889h1.567a34.1,34.1,0,0,0,1.533,8.412,14.171,14.171,0,0,0,3.883,6.3,9.981,9.981,0,0,0,6.982,2.384,9.469,9.469,0,0,0,5.994-1.907,6.8,6.8,0,0,0,2.452-5.722A9.286,9.286,0,0,0,95.5,33.752a49.8,49.8,0,0,0-7.357-5.688q-3.2-2.112-5.994-4.223A17.577,17.577,0,0,1,77.688,19a12.146,12.146,0,0,1-1.669-6.471,11.146,11.146,0,0,1,2.146-7.05A12.675,12.675,0,0,1,83.819,1.4,20.888,20.888,0,0,1,91.278.068a17.712,17.712,0,0,1,6.2.851,24.1,24.1,0,0,1,3.746,1.805q.817.477,1.328.715a2.33,2.33,0,0,0,.988.238q1.09,0,1.5-3H106.6q-.068,1.294-.17,3.1T106.3,8.514q-.034,2.929-.034,7.7H104.7a22.706,22.706,0,0,0-1.635-6.88,14.174,14.174,0,0,0-3.849-5.484,9.007,9.007,0,0,0-6.1-2.145,7.9,7.9,0,0,0-5.381,1.839,6.417,6.417,0,0,0-2.112,5.109,7.916,7.916,0,0,0,1.362,4.666,16.055,16.055,0,0,0,3.985,3.78q2.622,1.839,6.369,4.428a65.4,65.4,0,0,1,5.858,4.223,17.864,17.864,0,0,1,4.155,4.768,12.252,12.252,0,0,1,1.567,6.335,11.49,11.49,0,0,1-2.35,7.425,14.277,14.277,0,0,1-6.165,4.393,23.194,23.194,0,0,1-8.379,1.465A22.52,22.52,0,0,1,85.284,49.317Zm145.4-.068q-.852,0-1.805.068L199.313,11.852V38.009a30.762,30.762,0,0,0,.409,5.756,4.1,4.1,0,0,0,1.805,2.861,11.205,11.205,0,0,0,4.393,1.192v1.363q-1.294-.136-3.406-.17t-3.951-.034q-1.567,0-3.2.034a27.067,27.067,0,0,0-2.725.17V47.818a7.388,7.388,0,0,0,3.27-1.158,4.247,4.247,0,0,0,1.464-2.691,27.536,27.536,0,0,0,.375-5.143V8.174a13.4,13.4,0,0,0-.375-3.712,2.455,2.455,0,0,0-1.5-1.635,10.1,10.1,0,0,0-3.236-.511V.953q1.09.068,2.725.136t3.2.068q1.635,0,3.133-.068t2.725-.136l26.362,32.492V12.125a30.761,30.761,0,0,0-.409-5.756,4.226,4.226,0,0,0-1.805-2.9,10.2,10.2,0,0,0-4.394-1.158V.953q1.294.068,3.406.136t3.951.068q1.635,0,3.236-.068t2.691-.136V2.316a6.643,6.643,0,0,0-3.27,1.124,4.373,4.373,0,0,0-1.465,2.691,27.475,27.475,0,0,0-.375,5.177v38.01Q231.532,49.249,230.681,49.249Zm-205.478,0H22.82a9.311,9.311,0,0,0-1.158.068L4.291,6.675A7.968,7.968,0,0,0,2.18,3.3,4.033,4.033,0,0,0,0,2.316V.953q2.043.068,4.8.136t5.551.068q3.134,0,5.892-.068T20.708.953V2.316q-3.338.136-4.359,1.124t.409,4.6L28.743,38.53l8.381-22.591A27.465,27.465,0,0,0,39.031,7.9Q39.1,4.972,37.6,3.678A6.637,6.637,0,0,0,33.31,2.316V.953q2.316.068,4.36.136t4.155.068q1.5,0,2.827-.068T47,.953V2.316A8.441,8.441,0,0,0,43.834,4.7a17.748,17.748,0,0,0-3.1,5.722l-14.373,38.9A9.307,9.307,0,0,0,25.2,49.249Zm105.242-.238q-2.793-.034-5.654-.034-3.338,0-6.165.034t-4.6.17V47.818a12.031,12.031,0,0,0,3.27-.545,2.366,2.366,0,0,0,1.465-1.635,13.47,13.47,0,0,0,.375-3.678V8.174a13.416,13.416,0,0,0-.375-3.712,2.455,2.455,0,0,0-1.5-1.635,10.1,10.1,0,0,0-3.236-.511V.953q1.771.068,4.6.136t6.165.068q2.861,0,5.654-.068t4.564-.136l.068,1.363a10.247,10.247,0,0,0-3.338.511,2.461,2.461,0,0,0-1.464,1.635,13.4,13.4,0,0,0-.375,3.712V41.96a16.467,16.467,0,0,0,.409,3.678,2.273,2.273,0,0,0,1.464,1.635,12.255,12.255,0,0,0,3.236.545l.068,1.363Q133.238,49.045,130.446,49.011Zm-65.393,0q-2.793-.034-5.654-.034-3.338,0-6.165.034t-4.6.17V47.818a12.031,12.031,0,0,0,3.27-.545,2.366,2.366,0,0,0,1.465-1.635,13.472,13.472,0,0,0,.375-3.678V8.174a13.417,13.417,0,0,0-.375-3.712,2.455,2.455,0,0,0-1.5-1.635,10.1,10.1,0,0,0-3.236-.511V.953q1.771.068,4.6.136t6.165.068q2.861,0,5.654-.068T69.616.953l.068,1.363a10.247,10.247,0,0,0-3.338.511,2.461,2.461,0,0,0-1.464,1.635,13.4,13.4,0,0,0-.375,3.712V41.96a16.469,16.469,0,0,0,.409,3.678,2.274,2.274,0,0,0,1.464,1.635,12.255,12.255,0,0,0,3.236.545l.068,1.363Q67.845,49.045,65.052,49.011Zm94.921-14.967a9.743,9.743,0,1,1,8.452-17.532c-.059,0-.122,0-.2,0a4.1,4.1,0,1,0,4.1,4.1c0-.065,0-.131,0-.2a9.746,9.746,0,0,1-12.348,13.636Z" transform="translate(321.738 0)" fill="#1c4371"/>
  </g>
</svg>
